<?xml version="1.0" encoding="utf-8"?>
<!-- Generator: Adobe Illustrator 21.0.0, SVG Export Plug-In . SVG Version: 6.00 Build 0)  -->
<svg fill="#fff" font-size="100px" version="1.1" id="Livello_1" xmlns="http://www.w3.org/2000/svg" xmlns:xlink="http://www.w3.org/1999/xlink" x="0px" y="0px"
	 viewBox="0 0 100 100" style="enable-background:new 0 0 100 100;" xml:space="preserve">
<style type="text/css">
	.st0{
		fill:none;
	}
</style>
<rect class="st0" width="100" height="100"/>
<g>
	<circle cx="28.8" cy="60.5" r="7"/>
	<path d="M76.1,48.6l-0.8-5.9c0.4,0,0.7-0.1,1.1-0.1V41h3.1v-5.7h-3.1v-1.7l-2.9,0.8v-1.6c0-0.1-0.1-0.3-0.1-0.4c0-0.1,0-0.1,0-0.2
		c0-0.1,0-0.1-0.1-0.2c-1.3-4.2-9.8-4.6-9.8-4.6v2.9c6.2,0,6.3,3.9,6.3,3.9v1.1l-0.4,0.1c0,0-4.9,2.5-11.9,2.5h-5.4l-4,4.6h-9.8
		c0,0-0.6-6.1-6-6.1h-10l-0.2,0.6h-1.9c-1,0-1.7,0.8-1.7,1.7c0,1,0.8,1.7,1.7,1.7h1L21,41.2c0,0-6.7,2.3-8.4,7.4l2.4,2
		c0,0,3.8-6.1,16-6.1c0,0,9.5-0.1,14.4,13.5h-4.9c-1.1-5.4-5.9-9.5-11.7-9.5c-6.6,0-11.9,5.3-11.9,11.9c0,6.6,5.3,11.9,11.9,11.9
		c5.7,0,10.4-4,11.6-9.3c1.1,0.2,13.3,2,18.2-5.8l5.8-9c0,0,0.6-1,2-2.2l1.6,5.1c-2.7,2.2-4.5,5.5-4.5,9.3c0,6.6,5.3,11.9,11.9,11.9
		s11.9-5.3,11.9-11.9C87.4,54.1,82.4,49,76.1,48.6z M28.8,68.8c-4.6,0-8.3-3.7-8.3-8.3c0-4.6,3.7-8.3,8.3-8.3s8.3,3.7,8.3,8.3
		C37.1,65.1,33.4,68.8,28.8,68.8z M70.2,43.9c0.7-0.3,1.4-0.5,2.2-0.7l1.3,5.6c-0.9,0.1-1.8,0.3-2.6,0.7L70.2,43.9z M75.5,68.8
		c-4.6,0-8.3-3.7-8.3-8.3c0-4.6,3.7-8.3,8.3-8.3c4.6,0,8.3,3.7,8.3,8.3C83.8,65.1,80.1,68.8,75.5,68.8z"/>
	<circle cx="75.5" cy="60.5" r="7"/>
</g>
</svg>
