<?xml version="1.0" encoding="UTF-8" standalone="no"?> <svg xmlns="http://www.w3.org/2000/svg" viewBox="0 0 64 64"><g id="Layer_61" data-name="Layer 61"><path d="M18.06,46.06a.87.87,0,0,1-.62-.23.82.82,0,0,1-.27-.66.88.88,0,0,1,.25-.61.86.86,0,0,1,.63-.26.89.89,0,0,1,.63.26.83.83,0,0,1,.26.61.87.87,0,0,1-.26.66A.89.89,0,0,1,18.06,46.06Z"/><path d="M24.2,42.57H22.61V45a1.09,1.09,0,0,1-.25.79.87.87,0,0,1-1.25,0,1.14,1.14,0,0,1-.24-.78V38.39a1.12,1.12,0,0,1,.26-.82,1.24,1.24,0,0,1,.84-.24H24.2a6,6,0,0,1,1.53.15,2.3,2.3,0,0,1,.91.49,2.15,2.15,0,0,1,.58.83,3,3,0,0,1,.2,1.11,2.45,2.45,0,0,1-.81,2A3.69,3.69,0,0,1,24.2,42.57Zm-.42-3.94H22.61v2.63h1.17a3.35,3.35,0,0,0,1-.13,1.21,1.21,0,0,0,.63-.42,1.3,1.3,0,0,0,.22-.77,1.25,1.25,0,0,0-.34-.92A2.18,2.18,0,0,0,23.78,38.63Z"/><path d="M35,44.56l-1.39-5.15-1.41,5.15c-.11.4-.2.68-.26.85a1,1,0,0,1-.34.45.93.93,0,0,1-.64.2,1.07,1.07,0,0,1-.53-.11,1,1,0,0,1-.33-.34,1.83,1.83,0,0,1-.21-.53c-.06-.2-.11-.38-.15-.56l-1.43-5.78a3.19,3.19,0,0,1-.13-.77.74.74,0,0,1,.24-.56.8.8,0,0,1,.58-.23.63.63,0,0,1,.63.31,3.21,3.21,0,0,1,.29.88l1.13,5,1.26-4.7a6,6,0,0,1,.25-.82,1.11,1.11,0,0,1,.36-.48,1.05,1.05,0,0,1,.69-.21,1,1,0,0,1,.68.22,1.22,1.22,0,0,1,.34.46c.06.17.14.45.25.83l1.27,4.7,1.13-5a4.51,4.51,0,0,1,.15-.61.94.94,0,0,1,.25-.4.7.7,0,0,1,.52-.18.82.82,0,0,1,.58.23A.74.74,0,0,1,39,38a4.15,4.15,0,0,1-.13.77l-1.43,5.78a8.7,8.7,0,0,1-.25.86,1.16,1.16,0,0,1-.32.48,1,1,0,0,1-.66.2,1,1,0,0,1-.64-.19,1.14,1.14,0,0,1-.33-.45C35.16,45.25,35.07,45,35,44.56Z"/><path d="M45.63,45l-.41-1.08h-3.5L41.31,45a3.56,3.56,0,0,1-.41.87.64.64,0,0,1-.55.22.8.8,0,0,1-.58-.24.73.73,0,0,1-.26-.54,1.13,1.13,0,0,1,.06-.36c0-.13.11-.3.2-.53L42,38.82c.07-.16.14-.36.23-.58a3.24,3.24,0,0,1,.28-.56,1.12,1.12,0,0,1,.39-.36,1.27,1.27,0,0,1,.6-.14,1.22,1.22,0,0,1,.61.14,1.2,1.2,0,0,1,.39.35,2.12,2.12,0,0,1,.25.47l.27.66,2.24,5.55a2.65,2.65,0,0,1,.26.92.76.76,0,0,1-.25.55.81.81,0,0,1-.6.24.78.78,0,0,1-.35-.07.59.59,0,0,1-.24-.2,1.74,1.74,0,0,1-.22-.38C45.75,45.23,45.68,45.08,45.63,45Zm-3.45-2.39h2.57L43.45,39Z"/><path d="M56,34H53V16s0,0,0-.06a1.55,1.55,0,0,0,0-.21s0-.05,0-.08a.08.08,0,0,0,0,0,1,1,0,0,0-.17-.29l-11-12a1.42,1.42,0,0,0-.29-.21s0,0,0,0l-.07,0a.86.86,0,0,0-.23,0L41,3H14.42A3.42,3.42,0,0,0,11,6.42V34H8a1,1,0,0,0-1,1V49s0,0,0,.07,0,.13,0,.2l.06.17a.91.91,0,0,0,.11.16l.13.15.05,0L11,52.5v5.08A3.42,3.42,0,0,0,14.42,61H49.58A3.42,3.42,0,0,0,53,57.58V52.5l3.6-2.7,0,0,.13-.15a.91.91,0,0,0,.11-.16l.06-.17c0-.07,0-.13,0-.2s0,0,0-.07V35A1,1,0,0,0,56,34ZM42,6.57,49.73,15H42ZM13,6.42A1.43,1.43,0,0,1,14.42,5H19V34H13ZM11,50Zm8,9H14.42A1.43,1.43,0,0,1,13,57.58V50h6Zm34-9Zm2-2H9V36H55Z"/></g></svg>